<svg width="32" height="32" viewBox="0 0 32 32" fill="none" xmlns="http://www.w3.org/2000/svg">
<rect width="32" height="32" rx="10.1781" fill="url(#paint0_radial_760_3785)" fill-opacity="0.15"/>
<rect x="0.424088" y="0.424088" width="31.1518" height="31.1518" rx="9.75403" stroke="white" stroke-opacity="0.08" stroke-width="0.848176"/>
<path d="M15.5553 8.50156C15.5934 8.29765 15.7016 8.11349 15.8612 7.98096C16.0208 7.84843 16.2217 7.77588 16.4291 7.77588C16.6365 7.77588 16.8374 7.84843 16.997 7.98096C17.1566 8.11349 17.2648 8.29765 17.3029 8.50156L18.2371 13.442C18.3035 13.7933 18.4742 14.1163 18.7269 14.3691C18.9797 14.6219 19.3028 14.7925 19.654 14.8589L24.5944 15.7931C24.7983 15.8312 24.9825 15.9394 25.115 16.099C25.2476 16.2586 25.3201 16.4595 25.3201 16.6669C25.3201 16.8743 25.2476 17.0752 25.115 17.2348C24.9825 17.3944 24.7983 17.5026 24.5944 17.5407L19.654 18.4749C19.3028 18.5412 18.9797 18.7119 18.7269 18.9647C18.4742 19.2175 18.3035 19.5405 18.2371 19.8918L17.3029 24.8322C17.2648 25.0361 17.1566 25.2203 16.997 25.3528C16.8374 25.4854 16.6365 25.5579 16.4291 25.5579C16.2217 25.5579 16.0208 25.4854 15.8612 25.3528C15.7016 25.2203 15.5934 25.0361 15.5553 24.8322L14.6211 19.8918C14.5548 19.5405 14.3841 19.2175 14.1313 18.9647C13.8785 18.7119 13.5555 18.5412 13.2042 18.4749L8.26377 17.5407C8.05986 17.5026 7.87569 17.3944 7.74316 17.2348C7.61063 17.0752 7.53809 16.8743 7.53809 16.6669C7.53809 16.4595 7.61063 16.2586 7.74316 16.099C7.87569 15.9394 8.05986 15.8312 8.26377 15.7931L13.2042 14.8589C13.5555 14.7925 13.8785 14.6219 14.1313 14.3691C14.3841 14.1163 14.5548 13.7933 14.6211 13.442L15.5553 8.50156Z" stroke="white" stroke-width="1.77778" stroke-linecap="round" stroke-linejoin="round"/>
<path d="M23.54 7.77783V11.3334" stroke="white" stroke-width="1.77778" stroke-linecap="round" stroke-linejoin="round"/>
<path d="M25.3178 9.55566H21.7622" stroke="white" stroke-width="1.77778" stroke-linecap="round" stroke-linejoin="round"/>
<path d="M9.31782 25.5556C10.2997 25.5556 11.0956 24.7596 11.0956 23.7778C11.0956 22.7959 10.2997 22 9.31782 22C8.33598 22 7.54004 22.7959 7.54004 23.7778C7.54004 24.7596 8.33598 25.5556 9.31782 25.5556Z" stroke="white" stroke-width="1.77778" stroke-linecap="round" stroke-linejoin="round"/>
<defs>
<radialGradient id="paint0_radial_760_3785" cx="0" cy="0" r="1" gradientUnits="userSpaceOnUse" gradientTransform="translate(16 16) rotate(90) scale(21.2 31.3191)">
<stop stop-color="white" stop-opacity="0.8"/>
<stop offset="1" stop-color="white" stop-opacity="0.3"/>
</radialGradient>
</defs>
</svg>
